<?xml version="1.0" encoding="utf-8"?>
<svg version="1.1" baseProfile="tiny" id="Layer_1" xmlns="http://www.w3.org/2000/svg" xmlns:xlink="http://www.w3.org/1999/xlink"
	 x="0px" y="0px" viewBox="0 0 128 128" overflow="visible" xml:space="preserve">
<g display="none">
	<path display="inline" d="M11.31,36.62v12.75c0,10.07,24.33,18.22,52.26,18.22c27.93,0,52.26-8.16,52.26-18.22V36.62
		c-12.64,9.08-36.61,11.79-52.26,11.79C47.86,48.41,23.92,45.67,11.31,36.62z"/>
	<path display="inline" d="M63.57,1.5c-27.93,0-52.26,8.16-52.26,18.23c0,10.07,24.33,18.22,52.26,18.22
		c27.93,0,52.26-8.16,52.26-18.22C115.83,9.67,91.5,1.5,63.57,1.5z"/>
	<path display="inline" d="M11.31,95.86v12.85c0,10.06,24.33,18.22,52.26,18.22c27.93,0,52.26-8.16,52.26-18.22V95.86
		c-12.61,9.06-36.55,11.79-52.26,11.79C47.92,107.65,23.95,104.94,11.31,95.86z"/>
	<path display="inline" d="M11.31,66.25v12.72c0,10.07,24.33,18.22,52.26,18.22c27.93,0,52.26-8.16,52.26-18.22V66.25
		c-12.64,9.08-36.61,11.79-52.26,11.79C47.86,78.04,23.92,75.31,11.31,66.25z"/>
</g>
<path d="M64.07,35.14c-68.76,0.46-68.76-33.46,0-33C132.83,1.69,132.83,35.6,64.07,35.14z M10.65,49.26c0,0,1,15.43,56.05,15.43
	c46.38,0,50.09-15.43,50.09-15.43V26.57c0,0-3.71,15.43-50.09,15.43c-55.05,0-56.05-15.43-56.05-15.43V49.26z M10.65,79.76
	c0,0,1,15.43,56.05,15.43c46.38,0,50.09-15.43,50.09-15.43V57.07c0,0-3.71,15.43-50.09,15.43c-55.05,0-56.05-15.43-56.05-15.43
	V79.76z M10.65,110.26c0,0,1,15.43,56.05,15.43c46.38,0,50.09-15.43,50.09-15.43V87.57c0,0-3.71,15.43-50.09,15.43
	c-55.05,0-56.05-15.43-56.05-15.43V110.26z"/>
</svg>
